<svg data-noselect="" viewBox="0 0 400 300" width="400" height="300" preserveAspectRatio="none" version="1.1" xmlns="http://www.w3.org/2000/svg" style="background: rgba(255, 255, 255, 0);"><defs></defs> <g id="shape_iIf0JXfilG" transform="translate(25.210084033613445,102.94117647058823) rotate(0,95.5,56) scale(0.8403361344537815,0.8403361344537815)" filter="" style="cursor: move; opacity: 1;"><g><rect fill="rgba(0,0,0,0)" width="211" height="132" x="-10" y="-10"></rect><svg version="1.1" id="图层_1" xmlns="http://www.w3.org/2000/svg" xmlns:xlink="http://www.w3.org/1999/xlink" x="0px" y="0px" style="enable-background:new 0 0 283.46 226.77;" xml:space="preserve" viewBox="56.23756790161133 59.90900802612305 177.3654327392578 105.35400390625" width="191" height="112" preserveAspectRatio="none" data-parent="shape_iIf0JXfilG">
<g>
	<path style="" d="M120.045,158.796c-32.799,0-53.444-20.689-46.11-46.21c7.333-25.521,39.867-46.21,72.666-46.21
		c14.093,0,25.931,3.827,34.281,10.209l1.59-3.294c-9.734-8.319-24.226-13.382-41.672-13.382c-37.679,0-74.827,23.585-82.972,52.677
		c-8.145,29.093,15.796,52.677,53.475,52.677c9.859,0,19.677-1.628,28.954-4.534l2.488-5.153
		C135.405,157.646,127.734,158.796,120.045,158.796z" fill="#E60012"></path>
	<polygon style="" points="168.106,105.171 165.416,110.592 200.926,109.285 204.21,106.552 	" fill="#E60012"></polygon>
	<polygon style="" points="165.033,111.363 162.348,116.773 193.294,115.635 196.959,112.586 	" fill="#E60012"></polygon>
	<polygon style="" points="179.559,82.097 177.688,85.865 231.452,83.887 233.603,82.097 	" fill="#E60012"></polygon>
	<polygon style="" points="174.254,92.785 171.552,98.229 216.189,96.586 218.712,94.486 	" fill="#E60012"></polygon>
	<polygon style="" points="177.328,86.592 174.62,92.047 223.82,90.236 225.963,88.454 	" fill="#E60012"></polygon>
	<polygon style="" points="171.18,98.978 168.483,104.411 208.557,102.936 211.461,100.52 	" fill="#E60012"></polygon>
	<polygon style="" points="170.4,134.682 175.206,130.685 155.811,129.942 153.143,135.317 	" fill="#E60012"></polygon>
	<polygon style="" points="155.771,146.854 160.705,142.749 149.664,142.326 147.417,146.854 	" fill="#E60012"></polygon>
	<polygon style="" points="152.738,136.133 150.075,141.499 162.768,141.032 167.956,136.716 	" fill="#E60012"></polygon>
	<polygon style="" points="158.886,123.748 156.211,129.138 178.03,128.334 182.458,124.65 	" fill="#E60012"></polygon>
	<polygon style="" points="159.28,122.954 185.663,121.983 189.708,118.618 161.959,117.556 	" fill="#E60012"></polygon>
	<polygon style="" points="131.768,104.613 122.842,123.108 115.927,123.108 129.758,94.32 136.674,94.32 
		133.698,100.512 154.606,100.512 164.417,80.006 115.927,80.006 88.264,137.422 116.007,137.422 113.031,143.534 133.698,143.534 
		152.515,104.613 	" fill="#F39800"></polygon>
</g>
</svg></g> <!----></g><g id="shapge_aTRflIquf4" transform="translate(202.52100840336135,125.06784711565291) rotate(0,78.5,25.080000000000002) scale(0.8403361344537815,0.8403361344537815)" filter="" style="cursor: move; opacity: 1;"><g><svg xmlns="http://www.w3.org/2000/svg" version="1.1" xmlns:xlink="http://www.w3.org/1999/xlink" overflow="hidden" style="top:0; left: 0" width="157" height="50.160000000000004" viewBox="0 0 157 50.160000000000004" preserveAspectRatio="none" data-parent="shapge_aTRflIquf4"><rect fill="rgba(0,0,0,0)" width="157" height="50.160000000000004"></rect> <rect opacity="0"></rect><g transform="translate(0 0)" data-width="152"><path fill="#E60012" d="M24.21-3.31L24.21-6.84L13.38-6.84L13.38-3.31L24.21-3.31ZM10.75-8.97L26.75-8.97L26.75-1.18L13.38-1.18L13.38 0.68L10.75 0.68L10.75-8.97ZM3.76-13.60L34.28-13.60L34.28-0.08L34.28-0.08Q34.28 0.95 33.97 1.46L33.97 1.46L33.97 1.46Q33.67 1.98 32.91 2.24L32.91 2.24L32.91 2.24Q31.46 2.70 27.89 2.58L27.89 2.58L27.89 2.58Q27.78 2.09 27.51 1.52L27.51 1.52L27.51 1.52Q27.25 0.95 26.98 0.49L26.98 0.49L26.98 0.49Q28.01 0.53 28.94 0.53L28.94 0.53L28.94 0.53Q29.87 0.53 30.44 0.53L30.44 0.53L30.44 0.53Q30.70 0.53 30.82 0.53L30.82 0.53L30.82 0.53Q31.20 0.49 31.33 0.38L31.33 0.38L31.33 0.38Q31.46 0.27 31.46-0.08L31.46-0.08L31.46-11.21L6.50-11.21L6.50 2.89L3.76 2.89L3.76-13.60ZM10.91-17.75L27.28-17.75L27.28-21.17L10.91-21.17L10.91-17.75ZM8.13-15.66L8.13-23.26L30.17-23.26L30.17-15.66L8.13-15.66ZM21.01-27.82L21.01-27.82L35.49-27.82L35.49-25.38L2.39-25.38L2.39-27.82L17.94-27.82L17.94-27.82Q17.37-29.56 16.76-31.27L16.76-31.27L19.49-31.92L19.49-31.92Q20.33-29.83 21.01-27.82Z" transform="translate(0 33.44)"></path><path fill="#E60012" d="M31.62-31.08L31.62-31.08L34.16-30.06L34.16-30.06Q32.19-26.94 30.44-24.62L30.44-24.62L28.50-25.54L28.50-25.54Q29.30-26.71 30.17-28.25L30.17-28.25L30.17-28.25Q31.05-29.79 31.62-31.08ZM20.90-25.76L20.90-25.76L18.66-24.62L18.66-24.62Q18.16-25.65 17.40-27.07L17.40-27.07L17.40-27.07Q16.64-28.50 15.81-29.75L15.81-29.75L18.01-30.74L18.01-30.74Q18.85-29.49 19.65-28.14L19.65-28.14L19.65-28.14Q20.44-26.79 20.90-25.76ZM13.76-13.76L13.76-13.76L12.01-11.70L12.01-11.70Q11.29-13.41 9.88-16.04L9.88-16.04L9.88-16.04Q9.65-16.45 9.46-16.83L9.46-16.83L9.46 2.89L6.84 2.89L6.84-14.67L6.84-14.67Q5.13-8.59 2.81-4.79L2.81-4.79L2.81-4.79Q2.55-5.43 2.13-6.21L2.13-6.21L2.13-6.21Q1.71-6.99 1.33-7.52L1.33-7.52L1.33-7.52Q3.00-9.99 4.46-13.95L4.46-13.95L4.46-13.95Q5.93-17.90 6.69-21.85L6.69-21.85L2.24-21.85L2.24-24.51L6.84-24.51L6.84-31.81L9.46-31.81L9.46-24.51L13.15-24.51L13.15-21.85L9.46-21.85L9.46-20.37L9.46-20.37Q9.96-19.65 10.85-18.30L10.85-18.30L10.85-18.30Q11.74-16.95 12.58-15.64L12.58-15.64L12.58-15.64Q13.41-14.33 13.76-13.76ZM28.80-8.82L28.80-8.82L22.19-8.82L22.19-8.82Q21.13-6.92 20.06-5.36L20.06-5.36L20.06-5.36Q22.65-4.48 25.19-3.57L25.19-3.57L25.19-3.57Q27.70-5.59 28.80-8.82ZM22.04-14.48L22.04-14.48L24.78-13.95L24.78-13.95Q24.70-13.79 24.62-13.60L24.62-13.60L24.62-13.60Q24.13-12.46 23.48-11.25L23.48-11.25L35.76-11.25L35.76-8.82L31.62-8.82L31.62-8.82Q30.51-4.98 27.89-2.51L27.89-2.51L27.89-2.51Q32.26-0.80 35.23 0.72L35.23 0.72L33.25 2.74L33.25 2.74Q30.21 1.06 25.65-0.80L25.65-0.80L25.65-0.80Q21.51 1.75 14.25 2.85L14.25 2.85L14.25 2.85Q14.10 2.24 13.78 1.60L13.78 1.60L13.78 1.60Q13.45 0.95 13.11 0.46L13.11 0.46L13.11 0.46Q19-0.23 22.65-2.01L22.65-2.01L22.65-2.01Q19.53-3.19 16.19-4.26L16.19-4.26L16.19-4.26Q17.67-6.27 19.23-8.82L19.23-8.82L13.68-8.82L13.68-11.25L20.56-11.25L20.56-11.25Q21.43-12.92 22.04-14.48ZM35.30-24.43L35.30-22.04L27.85-22.04L27.85-22.04Q31.73-18.47 36.25-16.53L36.25-16.53L36.25-16.53Q35.76-16.15 35.24-15.54L35.24-15.54L35.24-15.54Q34.73-14.93 34.39-14.44L34.39-14.44L34.39-14.44Q30.06-16.76 26.11-20.79L26.11-20.79L26.11-14.52L23.45-14.52L23.45-20.67L23.45-20.67Q19.61-16.57 15.16-14.25L15.16-14.25L15.16-14.25Q14.86-14.74 14.36-15.31L14.36-15.31L14.36-15.31Q13.87-15.88 13.41-16.26L13.41-16.26L13.41-16.26Q17.90-18.28 21.66-22.04L21.66-22.04L14.44-22.04L14.44-24.43L23.45-24.43L23.45-31.81L26.11-31.81L26.11-24.43L35.30-24.43Z" transform="translate(38 33.44)"></path><path fill="#E60012" d="M21.17-28.35L33.93-28.35L33.93-25.80L4.37-25.80L4.37-28.35L18.01-28.35L18.01-28.35Q17.40-30.02 16.53-31.54L16.53-31.54L19.30-32.07L19.30-32.07Q20.60-30.29 21.17-28.35L21.17-28.35ZM28.04-7.26L28.04-11.21L10.18-11.21L10.18-7.26L28.04-7.26ZM10.18-5.02L10.18-0.87L28.04-0.87L28.04-5.02L10.18-5.02ZM10.18 2.96L7.41 2.96L7.41-13.64L30.93-13.64L30.93 2.89L28.04 2.89L28.04 1.56L10.18 1.56L10.18 2.96ZM26.26-19.49L26.26-19.49L35.80-19.49L35.80-16.91L2.20-16.91L2.20-19.49L11.67-19.49L11.67-19.49Q11.40-20.71 10.81-22.19L10.81-22.19L10.81-22.19Q10.22-23.67 9.50-24.93L9.50-24.93L12.16-25.54L12.16-25.54Q13.03-24.17 13.72-22.61L13.72-22.61L13.72-22.61Q14.40-21.05 14.63-19.80L14.63-19.80L13.41-19.49L23.26-19.49L23.26-19.49Q23.98-20.86 24.72-22.57L24.72-22.57L24.72-22.57Q25.46-24.28 25.95-25.69L25.95-25.69L28.99-24.97L28.99-24.97Q27.66-22.08 26.26-19.49Z" transform="translate(76 33.44)"></path><path fill="#E60012" d="M9.04-10.60L9.04-10.60L11.78-9.69L11.78-9.69Q8.21-3.84 3.91 0.53L3.91 0.53L3.91 0.53Q3.50 0.11 2.81-0.42L2.81-0.42L2.81-0.42Q2.13-0.95 1.63-1.29L1.63-1.29L1.63-1.29Q5.93-5.21 9.04-10.60ZM35.04-16.68L35.04-13.87L21.20-13.87L21.20-0.76L21.20-0.76Q21.20 1.86 19.57 2.28L19.57 2.28L19.57 2.28Q17.90 2.93 13.15 2.81L13.15 2.81L13.15 2.81Q13.03 2.20 12.75 1.43L12.75 1.43L12.75 1.43Q12.46 0.65 12.16 0L12.16 0L12.16 0Q13.98 0.04 15.45 0.06L15.45 0.06L15.45 0.06Q16.91 0.08 17.44 0.04L17.44 0.04L17.44 0.04Q17.94 0.04 18.14-0.13L18.14-0.13L18.14-0.13Q18.35-0.30 18.35-0.80L18.35-0.80L18.35-13.87L9.46-13.87L9.46-13.87Q5.70-13.87 5.02-13.38L5.02-13.38L5.02-13.38Q4.90-13.87 4.60-14.65L4.60-14.65L4.60-14.65Q4.29-15.43 4.07-16.00L4.07-16.00L4.07-16.00Q4.79-16.38 5.24-18.43L5.24-18.43L5.24-18.43Q5.55-19.46 6.04-22.46L6.04-22.46L6.04-22.46Q6.54-25.46 6.61-28.88L6.61-28.88L6.61-28.88Q13.22-29.03 20.10-29.62L20.10-29.62L20.10-29.62Q26.98-30.21 31.50-31.35L31.50-31.35L33.14-28.88L33.14-28.88Q28.46-27.78 22.06-27.17L22.06-27.17L22.06-27.17Q15.66-26.56 9.39-26.41L9.39-26.41L9.39-26.41Q8.85-21.17 7.68-16.68L7.68-16.68L18.35-16.68L18.35-24.24L21.20-24.24L21.20-16.68L35.04-16.68ZM26.26-9.42L26.26-9.42L28.69-10.56L28.69-10.56Q30.82-8.25 32.96-5.59L32.96-5.59L32.96-5.59Q35.11-2.93 36.37-0.95L36.37-0.95L33.74 0.42L33.74 0.42Q32.57-1.60 30.48-4.33L30.48-4.33L30.48-4.33Q28.39-7.07 26.26-9.42Z" transform="translate(114 33.44)"></path></g></svg></g> <!----></g><g id="shape_hxdHkoeLEW" transform="translate(219.32773109243698,160.83255254921795) rotate(0,92.5,12.591796875) scale(0.8403361344537815,0.8403361344537815)" filter="" style="cursor: move; opacity: 1;"><g><svg xmlns="http://www.w3.org/2000/svg" version="1.1" xmlns:xlink="http://www.w3.org/1999/xlink" overflow="hidden" style="top:0; left: 0" width="185" height="25.18359375" viewBox="0 0 185 25.18359375" preserveAspectRatio="none" data-parent="shape_hxdHkoeLEW"><rect fill="rgba(0,0,0,0)" width="185" height="25.18359375"></rect> <rect opacity="0"></rect><g transform="translate(0 0)" data-width="79.447265625"><path fill="#000000" d="M3.71-6.85L3.71-6.85L3.71-6.85Q4.06-7.88 4.98-6.93L4.98-6.93L4.98-6.93Q5.99-6.21 6.34-5.41L6.34-5.41L6.34-5.41Q7.10-3.81 5.89-2.13L5.89-2.13L5.89-2.13Q4.51-0.57 2.65-1.54L2.65-1.54L2.65-1.54Q0.64-2.60 1.09-4.49L1.09-4.49L1.09-4.49Q1.25-5.41 2.26-5.84L2.26-5.84L2.26-5.84Q2.73-5.91 2.40-5.21L2.40-5.21L2.40-5.21Q1.87-3.38 3.24-2.19L3.24-2.19L3.24-2.19Q4.68-1.07 5.39-2.79L5.39-2.79L5.39-2.79Q5.64-3.79 5.31-4.63L5.31-4.63L5.31-4.63Q4.84-5.80 3.98-5.80L3.98-5.80L3.98-5.80Q2.65-5.68 3.71-6.85ZM6.83-6.36L6.83-6.36L6.83-6.36Q7.85-7.16 8.24-6.13L8.24-6.13L8.24-6.13Q8.31-5.72 7.98-5.37L7.98-5.37L7.98-5.37Q7.81-5.23 7.46-5.50L7.46-5.50L7.46-5.50Q7.10-5.70 6.85-5.74L6.85-5.74L6.85-5.74Q6.34-5.80 6.83-6.36ZM1.03-1.13L1.03-1.13L1.03-1.13Q1.48-1.44 1.95-1.33L1.95-1.33L1.95-1.33Q2.07-1.23 1.97-1.07L1.97-1.07L1.97-1.07Q1.76-0.88 1.91-0.51L1.91-0.51L1.91-0.51Q2.07-0.18 2.48-0.10L2.48-0.10L2.48-0.10Q2.95-0.04 4.27-0.14L4.27-0.14L5.46-0.14L5.46-0.14Q6.44-0.08 7.10 0.57L7.10 0.57L7.10 0.57Q7.83 1.44 7.18 2.63L7.18 2.63L7.18 2.63Q6.13 4.08 3.96 4.25L3.96 4.25L3.96 4.25Q2.56 4.35 1.17 3.63L1.17 3.63L1.17 3.63Q0.37 3.20 0.41 2.30L0.41 2.30L0.41 2.30Q0.94 0.94 2.46 0.98L2.46 0.98L2.46 0.98Q2.79 1.13 2.30 1.52L2.30 1.52L2.30 1.52Q1.54 2.42 2.42 3.24L2.42 3.24L2.42 3.24Q3.90 4.29 5.70 2.97L5.70 2.97L5.70 2.97Q6.19 2.60 6.19 2.01L6.19 2.01L6.19 2.01Q6.23 1.46 5.72 0.98L5.72 0.98L5.72 0.98Q4.72 0.43 2.65 0.70L2.65 0.70L2.65 0.70Q1.58 0.90 0.84 0.12L0.84 0.12L0.84 0.12Q0.43-0.43 1.03-1.13Z" transform="translate(0 16.81640625)"></path><path fill="#000000" d="M1.37-6.34L1.37-6.34L1.37-6.34Q2.56-6.99 4.18-6.83L4.18-6.83L4.18-6.83Q5.13-6.83 5.74-5.93L5.74-5.93L5.74-5.93Q6.25-4.98 6.13-3.47L6.13-3.47L6.13-3.47Q6.01-2.34 6.23-1.44L6.23-1.44L6.23-1.44Q6.28-1.35 6.52-1.17L6.52-1.17L6.52-1.17Q7.16-0.82 6.67-0.04L6.67-0.04L6.67-0.04Q6.38 0.47 6.07 0.72L6.07 0.72L6.07 0.72Q5.43 1.21 4.98 0.31L4.98 0.31L4.98 0.31Q4.59-0.94 4.86-3.59L4.86-3.59L4.86-3.59Q4.92-4.49 4.57-5.54L4.57-5.54L4.57-5.54Q4.20-6.19 3.67-6.25L3.67-6.25L3.67-6.25Q2.46-6.36 1.83-4.96L1.83-4.96L1.83-4.96Q1.33-4.39 0.84-5.23L0.84-5.23L0.84-5.23Q0.29-5.70 1.37-6.34ZM3.16-3.47L3.16-3.47L3.16-3.47Q3.86-3.47 3.92-3.38L3.92-3.38L3.92-3.38Q3.92-3.18 3.51-3.06L3.51-3.06L3.51-3.06Q2.24-2.65 1.87-1.80L1.87-1.80L1.87-1.80Q1.74-1.44 2.03-0.98L2.03-0.98L2.03-0.98Q2.71-0.23 3.47-0.62L3.47-0.62L3.47-0.62Q3.88-0.74 4.00-0.74L4.00-0.74L4.00-0.74Q4.12-0.68 4.02-0.47L4.02-0.47L4.02-0.47Q3.90-0.27 3.73-0.12L3.73-0.12L3.73-0.12Q2.91 0.78 2.52 0.94L2.52 0.94L2.52 0.94Q2.07 1.11 1.29 0.39L1.29 0.39L1.29 0.39Q0.16-0.59 0.51-1.64L0.51-1.64L0.51-1.64Q0.96-2.71 1.85-2.95L1.85-2.95L1.85-2.95Q2.30-3.26 3.16-3.47Z" transform="translate(8.94140625 16.81640625)"></path><path fill="#000000" d="M4.02-6.67L4.02-6.67L4.02-6.67Q4.14-7.49 5.11-7.16L5.11-7.16L5.11-7.16Q5.78-7.05 6.71-5.97L6.71-5.97L6.71-5.97Q8.72-3.45 7.44-0.90L7.44-0.90L7.44-0.90Q6.21 1.17 4.10 1.03L4.10 1.03L4.10 1.03Q3.08 0.92 2.05 0.25L2.05 0.25L2.05 0.25Q0.25-1.42 0.41-3.24L0.41-3.24L0.41-3.24Q0.39-4.39 1.68-5.70L1.68-5.70L1.68-5.70Q2.19-6.13 2.63-6.13L2.63-6.13L2.63-6.13Q2.75-6.05 2.36-5.48L2.36-5.48L2.36-5.48Q0.80-2.79 3.26-0.25L3.26-0.25L3.26-0.25Q4.45 1.00 5.72 0.14L5.72 0.14L5.72 0.14Q7.22-1.58 6.25-4.04L6.25-4.04L6.25-4.04Q5.60-5.50 4.20-5.31L4.20-5.31L4.20-5.31Q3.57-5.19 3.49-5.25L3.49-5.25L3.49-5.25Q3.42-5.41 3.63-5.74L3.63-5.74L3.63-5.74Q4.02-6.34 4.02-6.67Z" transform="translate(16.529296875 16.81640625)"></path><path fill="#000000" d="M1.58-10.38L1.58-10.38L1.58-10.38Q2.44-11.12 2.81-10.27L2.81-10.27L2.81-10.27Q2.87-6.60 2.83-2.87L2.83-2.87L2.83-2.87Q2.73-1.89 2.97-1.37L2.97-1.37L2.97-1.37Q3.12-1.21 3.30-1.13L3.30-1.13L3.30-1.13Q3.51-1.07 3.55-0.43L3.55-0.43L3.55-0.43Q3.38 0.29 2.67 0.78L2.67 0.78L2.67 0.78Q2.30 1.13 1.76 0.43L1.76 0.43L1.76 0.43Q1.60 0.18 1.52-0.31L1.52-0.31L1.52-7.71L1.52-7.71Q1.48-8.86 0.78-9.11L0.78-9.11L0.78-9.11Q0.47-9.29 0.43-9.41L0.43-9.41L0.43-9.41Q0.45-9.56 1.17-10.05L1.17-10.05L1.17-10.05Q1.37-10.17 1.58-10.38Z" transform="translate(25.142578125 16.81640625)"></path><path fill="#000000" d="M4.02-6.67L4.02-6.67L4.02-6.67Q4.14-7.49 5.11-7.16L5.11-7.16L5.11-7.16Q5.78-7.05 6.71-5.97L6.71-5.97L6.71-5.97Q8.72-3.45 7.44-0.90L7.44-0.90L7.44-0.90Q6.21 1.17 4.10 1.03L4.10 1.03L4.10 1.03Q3.08 0.92 2.05 0.25L2.05 0.25L2.05 0.25Q0.25-1.42 0.41-3.24L0.41-3.24L0.41-3.24Q0.39-4.39 1.68-5.70L1.68-5.70L1.68-5.70Q2.19-6.13 2.63-6.13L2.63-6.13L2.63-6.13Q2.75-6.05 2.36-5.48L2.36-5.48L2.36-5.48Q0.80-2.79 3.26-0.25L3.26-0.25L3.26-0.25Q4.45 1.00 5.72 0.14L5.72 0.14L5.72 0.14Q7.22-1.58 6.25-4.04L6.25-4.04L6.25-4.04Q5.60-5.50 4.20-5.31L4.20-5.31L4.20-5.31Q3.57-5.19 3.49-5.25L3.49-5.25L3.49-5.25Q3.42-5.41 3.63-5.74L3.63-5.74L3.63-5.74Q4.02-6.34 4.02-6.67Z" transform="translate(29.44921875 16.81640625)"></path><path fill="#000000" d="M0.47-5.78L1.42-6.46L1.42-6.46Q2.05-7.05 2.54-6.75L2.54-6.75L2.54-6.75Q2.99-6.32 2.81-5.23L2.81-5.23L2.81-5.23Q2.73-3.98 2.75-1.39L2.75-1.39L2.75-1.39Q2.75-0.55 3.40-0.10L3.40-0.10L3.40-0.10Q4.31 0.31 5.21-0.66L5.21-0.66L5.43-0.70L5.43-0.70Q5.56-0.64 5.15-0.06L5.15-0.06L5.15-0.06Q3.55 1.64 1.89 0.33L1.89 0.33L1.89 0.33Q1.58-0.04 1.54-0.49L1.54-0.49L1.54-0.49Q1.42-2.48 1.56-4.20L1.56-4.20L1.56-4.20Q1.62-4.98 0.47-5.41L0.47-5.41L0.47-5.41Q0.35-5.56 0.47-5.78L0.47-5.78ZM6.15-0.68L6.15-6.36L6.15-6.36Q6.17-7.16 7.20-6.89L7.20-6.89L7.20-6.89Q7.49-6.87 7.69-6.60L7.69-6.60L7.69-6.60Q7.75-6.48 7.65-5.87L7.65-5.87L7.65-5.87Q7.42-4.16 7.44-1.97L7.44-1.97L7.44-1.97Q7.40-1.37 7.88-1.17L7.88-1.17L7.88-1.17Q8.24-1.15 8.22-0.55L8.22-0.55L8.22-0.55Q8.10-0.16 7.83 0.25L7.83 0.25L7.83 0.25Q7.14 1.31 6.52 0.66L6.52 0.66L6.52 0.66Q6.17 0.27 6.15-0.68L6.15-0.68Z" transform="translate(38.0625 16.81640625)"></path><path fill="#000000" d="M0.51-0.39L0.51-0.39L0.51-0.39Q1.37-1.87 2.26-0.21L2.26-0.21L2.26-0.21Q2.30 0.04 1.85 0.47L1.85 0.47L1.85 0.47Q1.15 1.17 0.53 0.16L0.53 0.16L0.53 0.16Q0.39 0 0.51-0.39Z" transform="translate(47.00390625 16.81640625)"></path><path fill="#000000" d="M5.70-6.85L5.70-6.85L5.70-6.85Q6.17-7.03 6.50-6.54L6.50-6.54L6.50-6.54Q6.75-6.01 6.36-5.31L6.36-5.31L6.36-5.31Q6.03-4.43 5.29-5.27L5.29-5.27L5.29-5.27Q4.82-6.03 4.29-6.19L4.29-6.19L4.29-6.19Q3.81-6.23 3.86-6.67L3.86-6.67L3.86-6.67Q3.88-6.79 4.55-6.79L4.55-6.79L4.55-6.79Q5.09-6.62 5.70-6.85ZM1.64-6.07L1.64-6.07L1.64-6.07Q2.26-6.52 2.79-6.56L2.79-6.56L2.79-6.56Q2.99-6.56 2.58-5.89L2.58-5.89L2.58-5.89Q1.74-5.23 1.74-4.41L1.74-4.41L1.74-4.41Q1.48-3.10 2.28-1.78L2.28-1.78L2.28-1.78Q3.34-0.27 4.82-0.39L4.82-0.39L4.82-0.39Q5.52-0.45 6.05-0.98L6.05-0.98L6.05-0.98Q6.64-1.48 6.75-1.48L6.75-1.48L6.75-1.48Q6.85-1.37 6.64-0.74L6.64-0.74L6.64-0.74Q6.44-0.16 5.43 0.49L5.43 0.49L5.43 0.49Q4.00 1.44 2.15 0.25L2.15 0.25L2.15 0.25Q0.45-1.13 0.41-2.83L0.41-2.83L0.41-2.83Q0.16-4.70 1.64-6.07Z" transform="translate(49.998046875 16.81640625)"></path><path fill="#000000" d="M4.02-6.67L4.02-6.67L4.02-6.67Q4.14-7.49 5.11-7.16L5.11-7.16L5.11-7.16Q5.78-7.05 6.71-5.97L6.71-5.97L6.71-5.97Q8.72-3.45 7.44-0.90L7.44-0.90L7.44-0.90Q6.21 1.17 4.10 1.03L4.10 1.03L4.10 1.03Q3.08 0.92 2.05 0.25L2.05 0.25L2.05 0.25Q0.25-1.42 0.41-3.24L0.41-3.24L0.41-3.24Q0.39-4.39 1.68-5.70L1.68-5.70L1.68-5.70Q2.19-6.13 2.63-6.13L2.63-6.13L2.63-6.13Q2.75-6.05 2.36-5.48L2.36-5.48L2.36-5.48Q0.80-2.79 3.26-0.25L3.26-0.25L3.26-0.25Q4.45 1.00 5.72 0.14L5.72 0.14L5.72 0.14Q7.22-1.58 6.25-4.04L6.25-4.04L6.25-4.04Q5.60-5.50 4.20-5.31L4.20-5.31L4.20-5.31Q3.57-5.19 3.49-5.25L3.49-5.25L3.49-5.25Q3.42-5.41 3.63-5.74L3.63-5.74L3.63-5.74Q4.02-6.34 4.02-6.67Z" transform="translate(57.5859375 16.81640625)"></path><path fill="#000000" d="M4.47-6.81L4.47-6.81L4.47-6.81Q5.46-7.10 6.30-6.62L6.30-6.62L6.30-6.62Q7.34-5.78 7.26-4.51L7.26-4.51L7.26-4.51Q7.26-2.11 7.34 0.37L7.34 0.37L7.34 0.37Q7.36 0.55 6.97 0.76L6.97 0.76L6.97 0.76Q6.42 0.96 5.97 0.68L5.97 0.68L5.97 0.68Q5.74 0.45 5.87-0.41L5.87-0.41L5.97-4.08L5.97-4.08Q6.07-4.72 5.87-5.17L5.87-5.17L5.87-5.17Q5.27-6.64 3.86-5.91L3.86-5.91L3.86-5.91Q3.12-5.56 3.32-6.01L3.32-6.01L3.32-6.01Q3.73-6.62 4.47-6.81ZM9.39-6.87L9.39-6.87L9.39-6.87Q10.85-7.05 11.50-6.01L11.50-6.01L11.50-6.01Q11.77-5.37 11.81-4.55L11.81-4.55L11.81-4.55Q11.75-3.38 11.75-2.15L11.75-2.15L11.75-2.15Q11.65-1.31 12.45-1.03L12.45-1.03L12.45-1.03Q12.67-0.31 11.94 0.51L11.94 0.51L11.94 0.51Q11.20 1.44 10.54 0.08L10.54 0.08L10.54 0.08Q10.32-1.13 10.50-3.90L10.50-3.90L10.50-3.90Q10.58-4.82 10.25-5.50L10.25-5.50L10.25-5.50Q9.50-6.58 7.77-5.62L7.77-5.62L7.77-5.62Q7.65-5.64 7.69-5.82L7.69-5.82L7.69-5.82Q8.12-6.77 9.39-6.87ZM1.46-6.36L1.46-6.36L1.46-6.36Q1.91-6.89 2.38-6.75L2.38-6.75L2.38-6.75Q2.93-6.19 2.69-5.21L2.69-5.21L2.69-5.21Q2.67-2.58 2.73 0.10L2.73 0.10L2.73 0.10Q2.81 1.00 1.66 0.78L1.66 0.78L1.66 0.78Q1.13 0.72 1.25-0.31L1.25-0.31L1.25-0.31Q1.31-2.15 1.44-4.02L1.44-4.02L1.44-4.02Q1.39-4.76 0.72-5.15L0.72-5.15L0.72-5.15Q0.31-5.31 0.47-5.64L0.47-5.64L0.47-5.64Q0.55-5.82 0.88-5.97L0.88-5.97L0.88-5.97Q1.21-6.11 1.46-6.36Z" transform="translate(66.19921875 16.81640625)"></path></g></svg></g> <!----></g>  <!----></svg>